# xmcd
#
# Track frame offsets: 
#        150
#        8662
#        24585
#        41999
#        56866
#        77247
#        103368
#        126272
#        143553
#        163258
#        187790
#        206676
#        215899
#        235220
#        255311
#        269119
#
# Disc length: 3816 seconds
#
# Revision: 2
# Processed by: cddbd v1.4PL0 Copyright (c) Steve Scherf et al.
# Submitted via: ExactAudioCopy v0.90a11
#
DISCID=f20ee610
DTITLE=Alicia Keys - Songs In A Minor
DYEAR=1900
DGENRE=
TTITLE0=Piano and I
TTITLE1=Girlfriend
TTITLE2=How Come You Don't Call Me
TTITLE3=Fallin'
TTITLE4=Troubles
TTITLE5=Rock With You
TTITLE6=A Womans Worth
TTITLE7=Jane Doe
TTITLE8=Goodbey
TTITLE9=The Life
TTITLE10=Mr.Mann
TTITLE11=Never Felt This Way
TTITLE12=Butterflyz
TTITLE13=Why do I Feel So Sad
TTITLE14=Caged Bird
TTITLE15=Loving You
EXTD=
EXTT0=
EXTT1=
EXTT2=
EXTT3=
EXTT4=
EXTT5=
EXTT6=
EXTT7=
EXTT8=
EXTT9=
EXTT10=
EXTT11=
EXTT12=
EXTT13=
EXTT14=
EXTT15=
PLAYORDER=
